<svg width="97" height="108" viewBox="0 0 97 108" fill="none" xmlns="http://www.w3.org/2000/svg">
<g clip-path="url(#clip0_6262_21332)">
<rect width="97" height="108" fill="none"/>
<g clip-path="url(#clip1_6262_21332)">
<path d="M23.2785 91.0424C23.2785 84.948 18.3494 80 12.2852 80V91.0424H23.2785Z" fill="white"/>
<path d="M23.2785 92.1797C23.2785 98.2741 18.3494 103.222 12.2852 103.222V92.1797H23.2785Z" fill="white"/>
<path d="M5.49667 91.0424C8.53239 91.0424 10.9933 88.5705 10.9933 85.5212C10.9933 82.4719 8.53239 80 5.49667 80C2.46094 80 0 82.4719 0 85.5212C0 88.5705 2.46094 91.0424 5.49667 91.0424Z" fill="white"/>
<path d="M10.9933 92.1797H0V103.222H10.9933V92.1797Z" fill="white"/>
<path d="M12.2879 115.725H23.2812V105.332H12.2879L12.2879 115.725Z" fill="white"/>
<path d="M-0.00114632 115.725H10.9922L10.9922 105.332H-0.00114632L-0.00114632 115.725Z" fill="white"/>
<path d="M72.4269 91.0424C72.4269 84.948 67.4979 80 61.4336 80V91.0424H72.4269Z" fill="white"/>
<path d="M72.4269 92.1797C72.4269 98.2741 67.4979 103.222 61.4336 103.222V92.1797H72.4269Z" fill="white"/>
<path d="M49.1484 92.1797C49.1484 98.2741 54.0775 103.222 60.1418 103.222V92.1797H49.1484Z" fill="white"/>
<path d="M49.1484 91.0424C49.1484 84.948 54.0775 80 60.1418 80V91.0424H49.1484Z" fill="white"/>
<path d="M47.8515 91.0424C47.8515 84.948 42.8862 80 36.7773 80V91.0424H47.8515Z" fill="white"/>
<path d="M47.8515 103.222L36.7773 92.1797H47.8515V103.222Z" fill="white"/>
<path d="M24.4922 91.0424C24.4922 84.948 29.4575 80 35.5664 80V91.0424H24.4922Z" fill="white"/>
<path d="M24.4922 115.725C24.4922 109.675 29.4575 104.764 35.5664 104.764V115.725H24.4922Z" fill="white"/>
<path d="M47.8515 115.725C47.8515 109.675 42.8862 104.764 36.7773 104.764V115.725H47.8515Z" fill="white"/>
<path d="M73.7188 115.725C73.7188 109.675 78.6841 104.764 84.7929 104.764V115.725H73.7188Z" fill="white"/>
<path d="M54.5631 115.725C57.5988 115.725 60.0597 113.271 60.0597 110.244C60.0597 107.217 57.5988 104.764 54.5631 104.764C51.5273 104.764 49.0664 107.217 49.0664 110.244C49.0664 113.271 51.5273 115.725 54.5631 115.725Z" fill="white"/>
<path d="M91.5045 115.725C94.5402 115.725 97.0011 113.271 97.0011 110.244C97.0011 107.217 94.5402 104.764 91.5045 104.764C88.4688 104.764 86.0078 107.217 86.0078 110.244C86.0078 113.271 88.4688 115.725 91.5045 115.725Z" fill="white"/>
<path d="M72.4268 104.764H69.5977V115.725H72.4268V104.764Z" fill="white"/>
<path d="M68.3839 104.764H65.5547V115.725H68.3839V104.764Z" fill="white"/>
<path d="M64.2628 104.764H61.4336V115.725H64.2628V104.764Z" fill="white"/>
<path d="M35.5674 92.1797H32.7383V103.222H35.5674V92.1797Z" fill="white"/>
<path d="M31.4424 92.1797H28.6133V103.222H31.4424V92.1797Z" fill="white"/>
<path d="M27.4034 92.1797H24.5742V103.222H27.4034V92.1797Z" fill="white"/>
</g>
<g clip-path="url(#clip2_6262_21332)">
<path d="M23.2785 71.0424C23.2785 64.948 18.3494 60 12.2852 60V71.0424H23.2785Z" fill="#FFF500"/>
<path d="M23.2785 72.1797C23.2785 78.2741 18.3494 83.2221 12.2852 83.2221V72.1797H23.2785Z" fill="#FFF500"/>
<path d="M5.49667 71.0424C8.53239 71.0424 10.9933 68.5705 10.9933 65.5212C10.9933 62.4719 8.53239 60 5.49667 60C2.46094 60 0 62.4719 0 65.5212C0 68.5705 2.46094 71.0424 5.49667 71.0424Z" fill="#FFF500"/>
<path d="M10.9933 72.1797H0V83.2221H10.9933V72.1797Z" fill="#FFF500"/>
<path d="M23.2785 96.9434H12.2852V107.986H23.2785V96.9434Z" fill="#FFF500"/>
<path d="M12.2879 95.7246H23.2812V85.3318H12.2879L12.2879 95.7246Z" fill="#FFF500"/>
<path d="M-0.00114632 95.7246H10.9922L10.9922 85.3318H-0.00114632L-0.00114632 95.7246Z" fill="#FFF500"/>
<path d="M72.4269 71.0424C72.4269 64.948 67.4979 60 61.4336 60V71.0424H72.4269Z" fill="#FFF500"/>
<path d="M72.4269 72.1797C72.4269 78.2741 67.4979 83.2221 61.4336 83.2221V72.1797H72.4269Z" fill="#FFF500"/>
<path d="M49.1484 72.1797C49.1484 78.2741 54.0775 83.2221 60.1418 83.2221V72.1797H49.1484Z" fill="#FFF500"/>
<path d="M49.1484 71.0424C49.1484 64.948 54.0775 60 60.1418 60V71.0424H49.1484Z" fill="#FFF500"/>
<path d="M47.8515 71.0424C47.8515 64.948 42.8862 60 36.7773 60V71.0424H47.8515Z" fill="#FFF500"/>
<path d="M47.8515 83.2221L36.7773 72.1797H47.8515V83.2221Z" fill="#FFF500"/>
<path d="M24.4922 71.0424C24.4922 64.948 29.4575 60 35.5664 60V71.0424H24.4922Z" fill="#FFF500"/>
<path d="M24.4922 95.7249C24.4922 89.6752 29.4575 84.7637 35.5664 84.7637V95.7249H24.4922Z" fill="#FFF500"/>
<path d="M36.7801 107.986L47.7734 107.986L47.7734 96.9439L36.7801 96.9439L36.7801 107.986Z" fill="#FFF500"/>
<path d="M24.4922 107.986L35.5664 96.9434H24.4922V107.986Z" fill="#FFF500"/>
<path d="M47.8515 95.7249C47.8515 89.6752 42.8862 84.7637 36.7773 84.7637V95.7249H47.8515Z" fill="#FFF500"/>
<path d="M73.7188 95.7249C73.7188 89.6752 78.6841 84.7637 84.7929 84.7637V95.7249H73.7188Z" fill="#FFF500"/>
<path d="M73.7188 96.9434L84.7929 107.986V96.9434H73.7188Z" fill="#FFF500"/>
<path d="M97.0011 107.986C97.0011 101.891 92.0721 96.9434 86.0078 96.9434V107.986H97.0011Z" fill="#FFF500"/>
<path d="M72.3449 96.9434C72.3449 103.038 67.4158 107.986 61.3516 107.986V96.9434H72.3449Z" fill="#FFF500"/>
<path d="M49.0664 96.9434C49.0664 103.038 53.9955 107.986 60.0597 107.986V96.9434H49.0664Z" fill="#FFF500"/>
<path d="M54.5631 95.7249C57.5988 95.7249 60.0597 93.2711 60.0597 90.2443C60.0597 87.2174 57.5988 84.7637 54.5631 84.7637C51.5273 84.7637 49.0664 87.2174 49.0664 90.2443C49.0664 93.2711 51.5273 95.7249 54.5631 95.7249Z" fill="#FFF500"/>
<path d="M91.5045 95.7249C94.5402 95.7249 97.0011 93.2711 97.0011 90.2443C97.0011 87.2174 94.5402 84.7637 91.5045 84.7637C88.4688 84.7637 86.0078 87.2174 86.0078 90.2443C86.0078 93.2711 88.4688 95.7249 91.5045 95.7249Z" fill="#FFF500"/>
<path d="M10.9932 96.9434H8.16406V107.986H10.9932V96.9434Z" fill="#FFF500"/>
<path d="M6.95297 96.9434H4.04297V107.986H6.95297V96.9434Z" fill="#FFF500"/>
<path d="M2.82917 96.9434H0V107.986H2.82917V96.9434Z" fill="#FFF500"/>
<path d="M72.4268 84.7637H69.5977V95.7249H72.4268V84.7637Z" fill="#FFF500"/>
<path d="M68.3839 84.7637H65.5547V95.7249H68.3839V84.7637Z" fill="#FFF500"/>
<path d="M64.2628 84.7637H61.4336V95.7249H64.2628V84.7637Z" fill="#FFF500"/>
<path d="M35.5674 72.1797H32.7383V83.2221H35.5674V72.1797Z" fill="#FFF500"/>
<path d="M31.4424 72.1797H28.6133V83.2221H31.4424V72.1797Z" fill="#FFF500"/>
<path d="M27.4034 72.1797H24.5742V83.2221H27.4034V72.1797Z" fill="#FFF500"/>
</g>
<g clip-path="url(#clip3_6262_21332)">
<path d="M23.2785 51.0424C23.2785 44.948 18.3494 40 12.2852 40V51.0424H23.2785Z" fill="#05FF00"/>
<path d="M23.2785 52.1797C23.2785 58.2741 18.3494 63.2221 12.2852 63.2221V52.1797H23.2785Z" fill="#05FF00"/>
<path d="M5.49667 51.0424C8.53239 51.0424 10.9933 48.5705 10.9933 45.5212C10.9933 42.4719 8.53239 40 5.49667 40C2.46094 40 0 42.4719 0 45.5212C0 48.5705 2.46094 51.0424 5.49667 51.0424Z" fill="#05FF00"/>
<path d="M10.9933 52.1797H0V63.2221H10.9933V52.1797Z" fill="#05FF00"/>
<path d="M23.2785 76.9434H12.2852V87.9857H23.2785V76.9434Z" fill="#05FF00"/>
<path d="M12.2879 75.7246H23.2812V65.3318H12.2879L12.2879 75.7246Z" fill="#05FF00"/>
<path d="M-0.00114632 75.7246H10.9922L10.9922 65.3318H-0.00114632L-0.00114632 75.7246Z" fill="#05FF00"/>
<path d="M72.4269 51.0424C72.4269 44.948 67.4979 40 61.4336 40V51.0424H72.4269Z" fill="#05FF00"/>
<path d="M72.4269 52.1797C72.4269 58.2741 67.4979 63.2221 61.4336 63.2221V52.1797H72.4269Z" fill="#05FF00"/>
<path d="M49.1484 52.1797C49.1484 58.2741 54.0775 63.2221 60.1418 63.2221V52.1797H49.1484Z" fill="#05FF00"/>
<path d="M49.1484 51.0424C49.1484 44.948 54.0775 40 60.1418 40V51.0424H49.1484Z" fill="#05FF00"/>
<path d="M47.8515 51.0424C47.8515 44.948 42.8862 40 36.7773 40V51.0424H47.8515Z" fill="#05FF00"/>
<path d="M47.8515 63.2221L36.7773 52.1797H47.8515V63.2221Z" fill="#05FF00"/>
<path d="M24.4922 51.0424C24.4922 44.948 29.4575 40 35.5664 40V51.0424H24.4922Z" fill="#05FF00"/>
<path d="M24.4922 75.7249C24.4922 69.6752 29.4575 64.7637 35.5664 64.7637V75.7249H24.4922Z" fill="#05FF00"/>
<path d="M36.7801 87.9863L47.7734 87.9863L47.7734 76.9439L36.7801 76.9439L36.7801 87.9863Z" fill="#05FF00"/>
<path d="M24.4922 87.9857L35.5664 76.9434H24.4922V87.9857Z" fill="#05FF00"/>
<path d="M47.8515 75.7249C47.8515 69.6752 42.8862 64.7637 36.7773 64.7637V75.7249H47.8515Z" fill="#05FF00"/>
<path d="M73.7188 75.7249C73.7188 69.6752 78.6841 64.7637 84.7929 64.7637V75.7249H73.7188Z" fill="#05FF00"/>
<path d="M73.7188 76.9434L84.7929 87.9857V76.9434H73.7188Z" fill="#05FF00"/>
<path d="M97.0011 87.9857C97.0011 81.8913 92.0721 76.9434 86.0078 76.9434V87.9857H97.0011Z" fill="#05FF00"/>
<path d="M72.3449 76.9434C72.3449 83.0378 67.4158 87.9857 61.3516 87.9857V76.9434H72.3449Z" fill="#05FF00"/>
<path d="M49.0664 76.9434C49.0664 83.0378 53.9955 87.9857 60.0597 87.9857V76.9434H49.0664Z" fill="#05FF00"/>
<path d="M54.5631 75.7249C57.5988 75.7249 60.0597 73.2711 60.0597 70.2443C60.0597 67.2174 57.5988 64.7637 54.5631 64.7637C51.5273 64.7637 49.0664 67.2174 49.0664 70.2443C49.0664 73.2711 51.5273 75.7249 54.5631 75.7249Z" fill="#05FF00"/>
<path d="M91.5045 75.7249C94.5402 75.7249 97.0011 73.2711 97.0011 70.2443C97.0011 67.2174 94.5402 64.7637 91.5045 64.7637C88.4688 64.7637 86.0078 67.2174 86.0078 70.2443C86.0078 73.2711 88.4688 75.7249 91.5045 75.7249Z" fill="#05FF00"/>
<path d="M10.9932 76.9434H8.16406V87.9857H10.9932V76.9434Z" fill="#05FF00"/>
<path d="M6.95297 76.9434H4.04297V87.9857H6.95297V76.9434Z" fill="#05FF00"/>
<path d="M2.82917 76.9434H0V87.9857H2.82917V76.9434Z" fill="#05FF00"/>
<path d="M72.4268 64.7637H69.5977V75.7249H72.4268V64.7637Z" fill="#05FF00"/>
<path d="M68.3839 64.7637H65.5547V75.7249H68.3839V64.7637Z" fill="#05FF00"/>
<path d="M64.2628 64.7637H61.4336V75.7249H64.2628V64.7637Z" fill="#05FF00"/>
<path d="M35.5674 52.1797H32.7383V63.2221H35.5674V52.1797Z" fill="#05FF00"/>
<path d="M31.4424 52.1797H28.6133V63.2221H31.4424V52.1797Z" fill="#05FF00"/>
<path d="M27.4034 52.1797H24.5742V63.2221H27.4034V52.1797Z" fill="#05FF00"/>
</g>
<g clip-path="url(#clip4_6262_21332)">
<path d="M23.2785 31.0424C23.2785 24.948 18.3494 20 12.2852 20V31.0424H23.2785Z" fill="#0500FF"/>
<path d="M23.2785 32.1797C23.2785 38.2741 18.3494 43.2221 12.2852 43.2221V32.1797H23.2785Z" fill="#0500FF"/>
<path d="M5.49667 31.0424C8.53239 31.0424 10.9933 28.5705 10.9933 25.5212C10.9933 22.4719 8.53239 20 5.49667 20C2.46094 20 0 22.4719 0 25.5212C0 28.5705 2.46094 31.0424 5.49667 31.0424Z" fill="#0500FF"/>
<path d="M10.9933 32.1797H0V43.2221H10.9933V32.1797Z" fill="#0500FF"/>
<path d="M23.2785 56.9434H12.2852V67.9857H23.2785V56.9434Z" fill="#0500FF"/>
<path d="M12.2879 55.7246H23.2812V45.3318H12.2879L12.2879 55.7246Z" fill="#0500FF"/>
<path d="M-0.00114632 55.7246H10.9922L10.9922 45.3318H-0.00114632L-0.00114632 55.7246Z" fill="#0500FF"/>
<path d="M72.4269 31.0424C72.4269 24.948 67.4979 20 61.4336 20V31.0424H72.4269Z" fill="#0500FF"/>
<path d="M72.4269 32.1797C72.4269 38.2741 67.4979 43.2221 61.4336 43.2221V32.1797H72.4269Z" fill="#0500FF"/>
<path d="M49.1484 32.1797C49.1484 38.2741 54.0775 43.2221 60.1418 43.2221V32.1797H49.1484Z" fill="#0500FF"/>
<path d="M49.1484 31.0424C49.1484 24.948 54.0775 20 60.1418 20V31.0424H49.1484Z" fill="#0500FF"/>
<path d="M47.8515 31.0424C47.8515 24.948 42.8862 20 36.7773 20V31.0424H47.8515Z" fill="#0500FF"/>
<path d="M47.8515 43.2221L36.7773 32.1797H47.8515V43.2221Z" fill="#0500FF"/>
<path d="M24.4922 31.0424C24.4922 24.948 29.4575 20 35.5664 20V31.0424H24.4922Z" fill="#0500FF"/>
<path d="M24.4922 55.7249C24.4922 49.6752 29.4575 44.7637 35.5664 44.7637V55.7249H24.4922Z" fill="#0500FF"/>
<path d="M36.7801 67.9863L47.7734 67.9863L47.7734 56.9439L36.7801 56.9439L36.7801 67.9863Z" fill="#0500FF"/>
<path d="M24.4922 67.9857L35.5664 56.9434H24.4922V67.9857Z" fill="#0500FF"/>
<path d="M47.8515 55.7249C47.8515 49.6752 42.8862 44.7637 36.7773 44.7637V55.7249H47.8515Z" fill="#0500FF"/>
<path d="M73.7188 55.7249C73.7188 49.6752 78.6841 44.7637 84.7929 44.7637V55.7249H73.7188Z" fill="#0500FF"/>
<path d="M73.7188 56.9434L84.7929 67.9857V56.9434H73.7188Z" fill="#0500FF"/>
<path d="M97.0011 67.9857C97.0011 61.8913 92.0721 56.9434 86.0078 56.9434V67.9857H97.0011Z" fill="#0500FF"/>
<path d="M72.3449 56.9434C72.3449 63.0378 67.4158 67.9857 61.3516 67.9857V56.9434H72.3449Z" fill="#0500FF"/>
<path d="M49.0664 56.9434C49.0664 63.0378 53.9955 67.9857 60.0597 67.9857V56.9434H49.0664Z" fill="#0500FF"/>
<path d="M54.5631 55.7249C57.5988 55.7249 60.0597 53.2711 60.0597 50.2443C60.0597 47.2174 57.5988 44.7637 54.5631 44.7637C51.5273 44.7637 49.0664 47.2174 49.0664 50.2443C49.0664 53.2711 51.5273 55.7249 54.5631 55.7249Z" fill="#0500FF"/>
<path d="M91.5045 55.7249C94.5402 55.7249 97.0011 53.2711 97.0011 50.2443C97.0011 47.2174 94.5402 44.7637 91.5045 44.7637C88.4688 44.7637 86.0078 47.2174 86.0078 50.2443C86.0078 53.2711 88.4688 55.7249 91.5045 55.7249Z" fill="#0500FF"/>
<path d="M10.9932 56.9434H8.16406V67.9857H10.9932V56.9434Z" fill="#0500FF"/>
<path d="M6.95297 56.9434H4.04297V67.9857H6.95297V56.9434Z" fill="#0500FF"/>
<path d="M2.82917 56.9434H0V67.9857H2.82917V56.9434Z" fill="#0500FF"/>
<path d="M72.4268 44.7637H69.5977V55.7249H72.4268V44.7637Z" fill="#0500FF"/>
<path d="M68.3839 44.7637H65.5547V55.7249H68.3839V44.7637Z" fill="#0500FF"/>
<path d="M64.2628 44.7637H61.4336V55.7249H64.2628V44.7637Z" fill="#0500FF"/>
<path d="M35.5674 32.1797H32.7383V43.2221H35.5674V32.1797Z" fill="#0500FF"/>
<path d="M31.4424 32.1797H28.6133V43.2221H31.4424V32.1797Z" fill="#0500FF"/>
<path d="M27.4034 32.1797H24.5742V43.2221H27.4034V32.1797Z" fill="#0500FF"/>
</g>
<g clip-path="url(#clip5_6262_21332)">
<path d="M23.2785 11.0424C23.2785 4.94796 18.3494 0 12.2852 0V11.0424H23.2785Z" fill="#FF0000"/>
<path d="M23.2785 12.1797C23.2785 18.2741 18.3494 23.2221 12.2852 23.2221V12.1797H23.2785Z" fill="#FF0000"/>
<path d="M5.49667 11.0424C8.53239 11.0424 10.9933 8.57047 10.9933 5.52119C10.9933 2.47192 8.53239 0 5.49667 0C2.46094 0 0 2.47192 0 5.52119C0 8.57047 2.46094 11.0424 5.49667 11.0424Z" fill="#FF0000"/>
<path d="M10.9933 12.1797H0V23.2221H10.9933V12.1797Z" fill="#FF0000"/>
<path d="M23.2785 36.9434H12.2852V47.9857H23.2785V36.9434Z" fill="#FF0000"/>
<path d="M12.2879 35.7246H23.2812V25.3318H12.2879L12.2879 35.7246Z" fill="#FF0000"/>
<path d="M-0.00114632 35.7246H10.9922L10.9922 25.3318H-0.00114632L-0.00114632 35.7246Z" fill="#FF0000"/>
<path d="M72.4269 11.0424C72.4269 4.94796 67.4979 0 61.4336 0V11.0424H72.4269Z" fill="#FF0000"/>
<path d="M72.4269 12.1797C72.4269 18.2741 67.4979 23.2221 61.4336 23.2221V12.1797H72.4269Z" fill="#FF0000"/>
<path d="M49.1484 12.1797C49.1484 18.2741 54.0775 23.2221 60.1418 23.2221V12.1797H49.1484Z" fill="#FF0000"/>
<path d="M49.1484 11.0424C49.1484 4.94796 54.0775 0 60.1418 0V11.0424H49.1484Z" fill="#FF0000"/>
<path d="M47.8515 11.0424C47.8515 4.94796 42.8862 0 36.7773 0V11.0424H47.8515Z" fill="#FF0000"/>
<path d="M47.8515 23.2221L36.7773 12.1797H47.8515V23.2221Z" fill="#FF0000"/>
<path d="M24.4922 11.0424C24.4922 4.94796 29.4575 0 35.5664 0V11.0424H24.4922Z" fill="#FF0000"/>
<path d="M24.4922 35.7249C24.4922 29.6752 29.4575 24.7637 35.5664 24.7637V35.7249H24.4922Z" fill="#FF0000"/>
<path d="M36.7801 47.9863L47.7734 47.9863L47.7734 36.9439L36.7801 36.9439L36.7801 47.9863Z" fill="#FF0000"/>
<path d="M24.4922 47.9857L35.5664 36.9434H24.4922V47.9857Z" fill="#FF0000"/>
<path d="M47.8515 35.7249C47.8515 29.6752 42.8862 24.7637 36.7773 24.7637V35.7249H47.8515Z" fill="#FF0000"/>
<path d="M73.7188 35.7249C73.7188 29.6752 78.6841 24.7637 84.7929 24.7637V35.7249H73.7188Z" fill="#FF0000"/>
<path d="M73.7188 36.9434L84.7929 47.9857V36.9434H73.7188Z" fill="#FF0000"/>
<path d="M97.0011 47.9857C97.0011 41.8913 92.0721 36.9434 86.0078 36.9434V47.9857H97.0011Z" fill="#FF0000"/>
<path d="M72.3449 36.9434C72.3449 43.0378 67.4158 47.9857 61.3516 47.9857V36.9434H72.3449Z" fill="#FF0000"/>
<path d="M49.0664 36.9434C49.0664 43.0378 53.9955 47.9857 60.0597 47.9857V36.9434H49.0664Z" fill="#FF0000"/>
<path d="M54.5631 35.7249C57.5988 35.7249 60.0597 33.2711 60.0597 30.2443C60.0597 27.2174 57.5988 24.7637 54.5631 24.7637C51.5273 24.7637 49.0664 27.2174 49.0664 30.2443C49.0664 33.2711 51.5273 35.7249 54.5631 35.7249Z" fill="#FF0000"/>
<path d="M91.5045 35.7249C94.5402 35.7249 97.0011 33.2711 97.0011 30.2443C97.0011 27.2174 94.5402 24.7637 91.5045 24.7637C88.4688 24.7637 86.0078 27.2174 86.0078 30.2443C86.0078 33.2711 88.4688 35.7249 91.5045 35.7249Z" fill="#FF0000"/>
<path d="M10.9932 36.9434H8.16406V47.9857H10.9932V36.9434Z" fill="#FF0000"/>
<path d="M6.95297 36.9434H4.04297V47.9857H6.95297V36.9434Z" fill="#FF0000"/>
<path d="M2.82917 36.9434H0V47.9857H2.82917V36.9434Z" fill="#FF0000"/>
<path d="M72.4268 24.7637H69.5977V35.7249H72.4268V24.7637Z" fill="#FF0000"/>
<path d="M68.3839 24.7637H65.5547V35.7249H68.3839V24.7637Z" fill="#FF0000"/>
<path d="M64.2628 24.7637H61.4336V35.7249H64.2628V24.7637Z" fill="#FF0000"/>
<path d="M35.5674 12.1797H32.7383V23.2221H35.5674V12.1797Z" fill="#FF0000"/>
<path d="M31.4424 12.1797H28.6133V23.2221H31.4424V12.1797Z" fill="#FF0000"/>
<path d="M27.4034 12.1797H24.5742V23.2221H27.4034V12.1797Z" fill="#FF0000"/>
</g>
</g>
<defs>
<clipPath id="clip0_6262_21332">
<rect width="97" height="108" fill="white"/>
</clipPath>
<clipPath id="clip1_6262_21332">
<rect width="97" height="48" fill="white" transform="translate(0 80)"/>
</clipPath>
<clipPath id="clip2_6262_21332">
<rect width="97" height="48" fill="white" transform="translate(0 60)"/>
</clipPath>
<clipPath id="clip3_6262_21332">
<rect width="97" height="48" fill="white" transform="translate(0 40)"/>
</clipPath>
<clipPath id="clip4_6262_21332">
<rect width="97" height="48" fill="white" transform="translate(0 20)"/>
</clipPath>
<clipPath id="clip5_6262_21332">
<rect width="97" height="48" fill="white"/>
</clipPath>
</defs>
</svg>
