<svg width="31" height="48" viewBox="0 0 31 48" fill="none" xmlns="http://www.w3.org/2000/svg">
<g id="Jug/Color3">
<path id="Vector" d="M29.272 18.3241C28.9725 18.2492 28.5703 18.1789 28.0731 18.1115C26.4099 14.4111 23.1012 11.6117 19.081 10.4973V6.0764C19.081 5.6858 18.7516 5.36856 18.3447 5.36856H17.9069L18.9879 0.866831C19.0383 0.656086 18.9856 0.436028 18.8469 0.266232C18.707 0.0975613 18.4946 0 18.2703 0H12.0964C11.8713 0 11.6597 0.0975518 11.5198 0.266232C11.3799 0.436018 11.3276 0.656076 11.378 0.866831L12.459 5.36856H12.0219C11.6155 5.36856 11.2857 5.68506 11.2857 6.0764V7.5595L6.14208 7.05721C6.132 7.05683 6.12193 7.05683 6.11224 7.05609C6.08318 7.05385 6.0545 7.05237 6.02544 7.05237C3.94962 7.05721 2.26136 8.6814 2.26136 10.6779C2.26136 11.0633 2.32646 11.4434 2.44968 11.8046C2.45317 11.8154 2.45704 11.8266 2.46131 11.837C2.60313 12.2395 2.81741 12.6174 3.09796 12.9522L4.2814 14.961C3.48045 15.9101 2.8081 16.9668 2.29396 18.1114C1.79681 18.1781 1.39459 18.2492 1.09505 18.324C0.795134 18.3989 0 18.5977 0 19.287V19.2978L0.389045 43.5236C0.39137 44.2836 0.874185 44.9739 1.82395 45.5771C2.59661 46.0675 3.68005 46.5017 5.04442 46.8684C7.76265 47.5982 11.364 48 15.1835 48C19.0038 48 22.6044 47.5979 25.3225 46.8684C26.6873 46.5017 27.7707 46.0679 28.5434 45.5771C29.4928 44.9739 29.9759 44.2836 29.9783 43.5236L30.3673 19.2978V19.287C30.3673 18.5974 29.5718 18.3982 29.2719 18.324L29.272 18.3241ZM17.3454 1.41505L16.396 5.36831H13.9711L13.0214 1.41505H17.3454ZM5.99315 9.03331L11.2859 9.54939V10.4963C9.21392 11.0708 7.33074 12.0944 5.7645 13.4571L4.38505 11.1155C4.34436 10.9736 4.32266 10.8258 4.32266 10.6768C4.32305 9.78395 5.0682 9.05486 5.99316 9.03332L5.99315 9.03331ZM28.5062 43.5062C28.5062 43.5096 28.5058 43.5125 28.5058 43.517C28.5058 43.8983 27.7525 44.7458 24.9265 45.5049C22.3342 46.2008 18.8739 46.584 15.1838 46.584C11.4937 46.584 8.03337 46.2008 5.44063 45.5045C2.61546 44.7453 1.86215 43.8979 1.86215 43.5166C1.86215 43.5125 1.86215 43.5092 1.86176 43.5058L1.48511 20.0454C1.58547 20.0651 1.69048 20.0834 1.79743 20.1005C2.53832 20.2245 3.595 20.3347 4.93656 20.4293C7.67572 20.6225 11.3151 20.7294 15.1847 20.7294C19.0543 20.7294 22.6939 20.6225 25.4329 20.4293C26.7744 20.3347 27.8303 20.2241 28.572 20.1005C28.6782 20.0834 28.7824 20.0651 28.8836 20.0454L28.5062 43.5062Z" fill="white"/>
<path id="Vector_2" d="M25.7427 29.4964C25.54 29.3661 25.2657 29.4186 25.1301 29.6144L22.9058 32.82L20.7088 29.6163C20.5755 29.4208 20.3011 29.3665 20.0973 29.4957C19.8939 29.6241 19.8373 29.8874 19.9714 30.084L22.3735 33.5874L19.9726 37.0481C19.8377 37.2428 19.8916 37.5061 20.0954 37.6367C20.1714 37.6852 20.2558 37.7082 20.3391 37.7082C20.4829 37.7082 20.6232 37.6416 20.7073 37.5195L22.9016 34.3578L25.1285 37.6054C25.213 37.7298 25.3537 37.7972 25.4974 37.7972C25.5804 37.7972 25.6652 37.7748 25.74 37.7272C25.9438 37.598 26 37.3347 25.8659 37.1385L23.4333 33.5907L25.8648 30.0862C26.0005 29.8892 25.9454 29.6263 25.7428 29.4964L25.7427 29.4964Z" fill="white"/>
<path id="Vector_3" d="M18.0082 29.7928C17.8059 29.6632 17.5316 29.7154 17.3956 29.9109L15.1717 33.1168L12.9747 29.9124C12.841 29.7169 12.5671 29.6633 12.3625 29.7918C12.159 29.921 12.1032 30.1842 12.2369 30.3804L14.639 33.8839L12.2381 37.3434C12.1033 37.5388 12.1575 37.8025 12.3609 37.932C12.4365 37.9812 12.5214 38.0035 12.6054 38.0035C12.7488 38.0035 12.8887 37.938 12.9736 37.8148L15.1671 34.6535L17.394 37.9015C17.4789 38.0247 17.6199 38.0925 17.7633 38.0925C17.8462 38.0925 17.9311 38.0694 18.0059 38.0221C18.2105 37.8937 18.2663 37.6304 18.1314 37.4338L15.6995 33.8861L18.1302 30.3815C18.267 30.186 18.212 29.9235 18.0082 29.7928L18.0082 29.7928Z" fill="white"/>
<path id="Vector_4" d="M10.2699 29.4964C10.0673 29.3661 9.7933 29.4186 9.65729 29.6144L7.43346 32.82L5.23642 29.6163C5.10273 29.4208 4.82877 29.3665 4.62418 29.4957C4.42036 29.6241 4.36494 29.8874 4.49863 30.084L6.90072 33.5874L4.49982 37.0481C4.36497 37.2428 4.41922 37.5061 4.62266 37.6367C4.69822 37.6852 4.78308 37.7082 4.86716 37.7082C5.01054 37.7082 5.15043 37.6416 5.23528 37.5195L7.42776 34.3578L9.65546 37.6054C9.74032 37.7298 9.88097 37.7972 10.0247 37.7972C10.108 37.7972 10.1925 37.7748 10.2673 37.7272C10.4707 37.598 10.5273 37.3347 10.3929 37.1385L7.96091 33.5907L10.3917 30.0862C10.5284 29.8892 10.4734 29.6263 10.27 29.4964L10.2699 29.4964Z" fill="white"/>
</g>
</svg>
